<svg width="333" height="119" viewBox="0 0 333 119" fill="none" xmlns="http://www.w3.org/2000/svg">
<rect width="333" height="119" fill="#9539E9"/>
<path d="M31.912 56.44H38.3568L41.336 89.1504H41.4576L44.6192 56.44H51.9152L55.0768 89.1504H55.1984L58.1776 56.44H63.9536L59.6368 99H51.3072L48.2672 70.3024H48.1456L45.1056 99H36.2288L31.912 56.44Z" fill="white"/>
<path d="M67.3365 56.44H74.0245V99H67.3365V56.44Z" fill="white"/>
<path d="M77.6958 93.0416L90.099 62.52H78.3038V56.44H97.2734V62.3984L84.8702 92.92H97.2734V99H77.6958V93.0416Z" fill="white"/>
<path d="M106.23 56.44H115.289L122.22 99H115.532L114.316 90.5488V90.6704H106.716L105.5 99H99.2983L106.23 56.44ZM113.526 84.8944L110.546 63.8576H110.425L107.506 84.8944H113.526Z" fill="white"/>
<path d="M125.465 56.44H135.375C138.82 56.44 141.333 57.2507 142.914 58.872C144.495 60.4528 145.285 62.9051 145.285 66.2288V68.8432C145.285 73.2613 143.826 76.0581 140.908 77.2336V77.3552C142.529 77.8416 143.664 78.8347 144.313 80.3344C145.002 81.8341 145.346 83.8405 145.346 86.3536V93.832C145.346 95.048 145.387 96.0411 145.468 96.8112C145.549 97.5408 145.752 98.2704 146.076 99H139.266C139.023 98.3109 138.861 97.6624 138.78 97.0544C138.699 96.4464 138.658 95.352 138.658 93.7712V85.9888C138.658 84.0432 138.334 82.6853 137.685 81.9152C137.077 81.1451 136.003 80.76 134.463 80.76H132.153V99H125.465V56.44ZM134.585 74.68C135.922 74.68 136.915 74.3355 137.564 73.6464C138.253 72.9573 138.597 71.8021 138.597 70.1808V66.8976C138.597 65.3573 138.314 64.2427 137.746 63.5536C137.219 62.8645 136.368 62.52 135.193 62.52H132.153V74.68H134.585Z" fill="white"/>
<path d="M149.987 56.44H160.201C163.525 56.44 166.017 57.3317 167.679 59.1152C169.341 60.8987 170.172 63.5131 170.172 66.9584V88.4816C170.172 91.9269 169.341 94.5413 167.679 96.3248C166.017 98.1083 163.525 99 160.201 99H149.987V56.44ZM160.079 92.92C161.174 92.92 162.005 92.5957 162.572 91.9472C163.18 91.2987 163.484 90.2448 163.484 88.7856V66.6544C163.484 65.1952 163.18 64.1413 162.572 63.4928C162.005 62.8443 161.174 62.52 160.079 62.52H156.675V92.92H160.079Z" fill="white"/>
<path d="M184.424 56.44H193.97L198.226 86.9008H198.347L202.603 56.44H212.149V99H205.826V66.776H205.704L200.84 99H195.246L190.382 66.776H190.261V99H184.424V56.44Z" fill="white"/>
<path d="M217.14 56.44H235.38V62.52H223.828V73.768H233.008V79.848H223.828V92.92H235.38V99H217.14V56.44Z" fill="white"/>
<path d="M239.227 56.44H249.442C252.765 56.44 255.258 57.3317 256.92 59.1152C258.582 60.8987 259.413 63.5131 259.413 66.9584V88.4816C259.413 91.9269 258.582 94.5413 256.92 96.3248C255.258 98.1083 252.765 99 249.442 99H239.227V56.44ZM249.32 92.92C250.414 92.92 251.245 92.5957 251.813 91.9472C252.421 91.2987 252.725 90.2448 252.725 88.7856V66.6544C252.725 65.1952 252.421 64.1413 251.813 63.4928C251.245 62.8443 250.414 62.52 249.32 62.52H245.915V92.92H249.32Z" fill="white"/>
<path d="M263.927 56.44H270.615V99H263.927V56.44Z" fill="white"/>
<path d="M280.792 56.44H289.851L296.782 99H290.094L288.878 90.5488V90.6704H281.278L280.062 99H273.861L280.792 56.44ZM288.088 84.8944L285.109 63.8576H284.987L282.069 84.8944H288.088Z" fill="white"/>
<line x1="31" y1="30" x2="146" y2="30" stroke="white" stroke-width="4"/>
<path fill-rule="evenodd" clip-rule="evenodd" d="M164.586 34.9284C164.749 34.9284 164.994 35.0102 165.32 35.255C165.81 35.6633 166.218 35.5816 166.218 35.5816C166.055 36.0714 165.239 36.2347 164.586 35.7448C163.932 36.2347 163.116 36.0714 162.871 35.5816C162.871 35.5816 163.279 35.6633 163.769 35.255C164.014 35.0102 164.34 34.9284 164.586 34.9284ZM168.177 30.7652H168.259C168.341 30.7652 168.341 30.8467 168.422 30.8467C169.239 31.0918 172.422 32.4795 171.688 35.6634C170.953 39.2549 164.994 43.5817 164.586 46.2754H164.504C164.014 43.5817 158.055 39.2549 157.32 35.6634C156.504 31.9897 160.83 30.7652 160.83 30.7652C160.83 30.7652 160.586 34.112 162.381 34.4386C163.116 34.4386 163.443 34.0305 164.014 33.8673C163.769 33.7855 163.524 33.6222 163.279 33.3774C164.096 33.6222 164.912 33.6222 165.729 33.3774C165.483 33.6222 165.239 33.704 165.075 33.8673C165.647 34.0305 166.137 34.6019 166.871 34.6019C168.014 34.4386 168.259 32.8876 168.341 31.8264C168.341 31.4998 168.259 31.1733 168.177 30.7652Z" fill="white"/>
<path fill-rule="evenodd" clip-rule="evenodd" d="M169.647 28.8876C171.361 29.2142 172.504 29.6223 172.504 30.1936C172.504 31.0918 168.912 31.8264 164.504 31.8264C160.096 31.8264 156.504 31.0918 156.504 30.1936C156.504 29.6223 157.647 29.2142 159.361 28.8876C159.687 28.8876 159.932 28.9691 160.259 28.9691L160.177 29.2142H164.014C164.177 29.2142 164.34 29.2142 164.504 29.2142C164.667 29.2142 164.83 29.2142 164.994 29.2142H168.831L168.749 28.9691C169.075 28.9691 169.402 28.8876 169.647 28.8876Z" fill="white"/>
<path fill-rule="evenodd" clip-rule="evenodd" d="M164.014 19.0917L167.034 17.8672L165.483 20.4794L165.157 20.7242L165.647 20.806L168.096 27.4181C167.034 27.4999 165.81 27.5814 164.504 27.5814C163.198 27.5814 161.973 27.4999 160.912 27.4181L164.014 19.0917ZM168.749 28.9691L168.831 29.2142H164.994C166.381 29.2142 167.606 29.1324 168.749 28.9691ZM164.014 29.2142H160.177L160.259 28.9691C161.402 29.1324 162.626 29.2142 164.014 29.2142Z" fill="white"/>
<line x1="184" y1="30" x2="299" y2="30" stroke="white" stroke-width="4"/>
</svg>
